<?xml version="1.0" encoding="utf-8"?>
<svg version="1.1" xmlns="http://www.w3.org/2000/svg" xmlns:xlink="http://www.w3.org/1999/xlink" width="50px" height="40px" viewBox="50 0 30 100" fill="white" xml:space="preserve">
<g><path d="M2.49,20.74h4.5v-9.86c0-1.37,1.11-2.48,2.48-2.48h4.41V2.48c0-1.37,1.11-2.48,2.48-2.48h40.26c1.37,0,2.48,1.11,2.48,2.48 V8.4h54.29c1.37,0,2.48,1.11,2.48,2.48v9.86h4.53c1.37,0,2.48,1.11,2.48,2.48c0,0.18-0.02,0.36-0.06,0.52l-8.68,63.8 c-0.28,2.08-1.19,4.01-2.59,5.41c-1.38,1.38-3.21,2.24-5.36,2.24H14.7c-2.16,0-4.03-0.87-5.43-2.26c-1.41-1.41-2.31-3.35-2.54-5.46 L0.01,23.48c-0.14-1.36,0.85-2.58,2.21-2.72C2.32,20.75,2.4,20.75,2.49,20.74L2.49,20.74L2.49,20.74L2.49,20.74L2.49,20.74z M78.33,64.63c0.44-0.39,0.68-0.91,0.64-1.64c-0.09-1.65-1.38-3.19-1.84-4.75c-0.76-1.22-1.04-3.15-0.2-4.44 c0.33-0.51,0.19-2.38,0.19-3.08c0-7.11,13.11-7.11,13.11,0c0,0.71-0.14,2.57,0.19,3.08c0.84,1.29,0.57,3.22-0.2,4.44 c-0.46,1.56-1.76,3.12-1.84,4.77c-0.05,1,0.44,1.59,1.22,2.02c2.68,1.46,8.83,0.08,8.83,7.19H83.98 C83.29,67.81,81.02,65.76,78.33,64.63L78.33,64.63z M42.47,75.23c0-9.2,8.01-7.36,11.42-9.28c0.97-0.55,1.57-1.31,1.5-2.58 c-0.12-2.12-1.77-4.1-2.36-6.1c-0.98-1.57-1.33-4.05-0.26-5.7c0.43-0.66,0.25-3.05,0.25-3.96c0-9.14,16.84-9.14,16.84,0 c0,0.91-0.18,3.3,0.25,3.96c1.08,1.66,0.73,4.13-0.26,5.7c-0.59,2.01-2.26,4.01-2.36,6.13c-0.06,1.28,0.57,2.04,1.57,2.59 c3.45,1.88,11.35,0.11,11.35,9.24H42.47L42.47,75.23z M24.44,72.22c0-7.16,6.24-5.73,8.89-7.22c0.76-0.43,1.22-1.02,1.17-2.01 c-0.09-1.65-1.38-3.19-1.84-4.75c-0.76-1.22-1.04-3.15-0.2-4.44c0.33-0.51,0.19-2.38,0.19-3.08c0-7.11,13.11-7.11,13.11,0 c0,0.71-0.14,2.57,0.19,3.08c0.84,1.29,0.57,3.22-0.2,4.44c-0.46,1.56-1.76,3.12-1.84,4.77c-0.03,0.72,0.21,1.22,0.64,1.61 c-2.69,1.13-4.95,3.19-5.65,7.6H24.44L24.44,72.22z M9.47,25.71H5.24l6.43,61.26c0.1,0.98,0.5,1.85,1.1,2.46 c0.5,0.5,1.17,0.81,1.93,0.81h91.49c0.75,0,1.38-0.3,1.87-0.79c0.62-0.62,1.03-1.53,1.17-2.55l8.32-61.18L9.47,25.71L9.47,25.71 L9.47,25.71L9.47,25.71z M11.95,13.37v7.36l98.96-1.05v-6.31H56.62c-1.37,0-2.48-1.11-2.48-2.48V4.97h-35.3v5.92 c0,1.37-1.11,2.48-2.48,2.48H11.95L11.95,13.37L11.95,13.37L11.95,13.37z"/></g></svg>